<svg width="32" height="32" viewBox="0 0 32 32" fill="none" xmlns="http://www.w3.org/2000/svg">
<mask id="mask0_16641_46232" style="mask-type:alpha" maskUnits="userSpaceOnUse" x="6" y="6" width="20" height="20">
<rect x="6" y="6" width="20" height="20" fill="#D9D9D9"/>
</mask>
<g mask="url(#mask0_16641_46232)">
<path d="M20.3958 22.875L23.2917 20L22.4167 19.125L20.3958 21.1042L19.5833 20.2917L18.7083 21.1875L20.3958 22.875ZM11 13.5H21V11.8333H11V13.5ZM21 25.1667C19.8472 25.1667 18.8646 24.7604 18.0521 23.9479C17.2396 23.1354 16.8333 22.1528 16.8333 21C16.8333 19.8472 17.2396 18.8646 18.0521 18.0521C18.8646 17.2396 19.8472 16.8333 21 16.8333C22.1528 16.8333 23.1354 17.2396 23.9479 18.0521C24.7604 18.8646 25.1667 19.8472 25.1667 21C25.1667 22.1528 24.7604 23.1354 23.9479 23.9479C23.1354 24.7604 22.1528 25.1667 21 25.1667ZM8.5 24.3333V10.1667C8.5 9.70833 8.66319 9.31597 8.98958 8.98958C9.31597 8.66319 9.70833 8.5 10.1667 8.5H21.8333C22.2917 8.5 22.684 8.66319 23.0104 8.98958C23.3368 9.31597 23.5 9.70833 23.5 10.1667V15.7292C23.1111 15.5347 22.7049 15.3924 22.2812 15.3021C21.8576 15.2118 21.4306 15.1667 21 15.1667H11V16.8333H16.9167C16.6806 17.0694 16.4618 17.3264 16.2604 17.6042C16.059 17.8819 15.8819 18.1806 15.7292 18.5H11V20.1667H15.2292C15.2014 20.3056 15.184 20.441 15.1771 20.5729C15.1701 20.7049 15.1667 20.8472 15.1667 21C15.1667 21.5833 15.2465 22.1424 15.4062 22.6771C15.566 23.2118 15.8056 23.7222 16.125 24.2083L16 24.3333L14.75 23.0833L13.5 24.3333L12.25 23.0833L11 24.3333L9.75 23.0833L8.5 24.3333Z" fill="#6C7784"/>
</g>
</svg>
