<svg width="32" height="32" viewBox="0 0 32 32" fill="none" xmlns="http://www.w3.org/2000/svg">
<circle cx="16" cy="16" r="15" fill="white" stroke="#E1EBFA" stroke-width="2"/>
<path d="M16 1C16 0.447715 16.4482 -0.00325582 16.9994 0.0312395C18.7587 0.141341 20.4901 0.541591 22.1229 1.21793C24.0641 2.022 25.828 3.20055 27.3137 4.68629C28.7994 6.17203 29.978 7.93586 30.7821 9.87707C31.5861 11.8183 32 13.8989 32 16C32 18.1012 31.5861 20.1817 30.7821 22.1229C29.978 24.0641 28.7994 25.828 27.3137 27.3137C25.828 28.7994 24.0641 29.978 22.1229 30.7821C20.4901 31.4584 18.7587 31.8587 16.9994 31.9688C16.4481 32.0033 16 31.5523 16 31C16 30.4477 16.4483 30.0037 16.9992 29.9643C18.4957 29.8572 19.9674 29.5101 21.3576 28.9343C23.0561 28.2307 24.5995 27.1995 25.8995 25.8995C27.1995 24.5995 28.2307 23.0561 28.9343 21.3576C29.6379 19.659 30 17.8385 30 16C30 14.1615 29.6379 12.341 28.9343 10.6424C28.2307 8.94388 27.1995 7.40053 25.8995 6.10051C24.5995 4.80049 23.0561 3.76925 21.3576 3.06569C19.9675 2.48988 18.4957 2.14277 16.9992 2.0357C16.4483 1.99628 16 1.55228 16 1Z" fill="#216BEB"/>
<mask id="mask0_16237_528509" style="mask-type:alpha" maskUnits="userSpaceOnUse" x="6" y="6" width="20" height="20">
<rect x="6" y="6" width="20" height="20" fill="#D9D9D9"/>
</mask>
<g mask="url(#mask0_16237_528509)">
<path d="M20.3958 22.875L23.2917 20L22.4167 19.125L20.3958 21.1042L19.5833 20.2917L18.7083 21.1875L20.3958 22.875ZM11 13.5H21V11.8333H11V13.5ZM21 25.1667C19.8472 25.1667 18.8646 24.7604 18.0521 23.9479C17.2396 23.1354 16.8333 22.1528 16.8333 21C16.8333 19.8472 17.2396 18.8646 18.0521 18.0521C18.8646 17.2396 19.8472 16.8333 21 16.8333C22.1528 16.8333 23.1354 17.2396 23.9479 18.0521C24.7604 18.8646 25.1667 19.8472 25.1667 21C25.1667 22.1528 24.7604 23.1354 23.9479 23.9479C23.1354 24.7604 22.1528 25.1667 21 25.1667ZM8.5 24.3333V10.1667C8.5 9.70833 8.66319 9.31597 8.98958 8.98958C9.31597 8.66319 9.70833 8.5 10.1667 8.5H21.8333C22.2917 8.5 22.684 8.66319 23.0104 8.98958C23.3368 9.31597 23.5 9.70833 23.5 10.1667V15.7292C23.1111 15.5347 22.7049 15.3924 22.2812 15.3021C21.8576 15.2118 21.4306 15.1667 21 15.1667H11V16.8333H16.9167C16.6806 17.0694 16.4618 17.3264 16.2604 17.6042C16.059 17.8819 15.8819 18.1806 15.7292 18.5H11V20.1667H15.2292C15.2014 20.3056 15.184 20.441 15.1771 20.5729C15.1701 20.7049 15.1667 20.8472 15.1667 21C15.1667 21.5833 15.2465 22.1424 15.4062 22.6771C15.566 23.2118 15.8056 23.7222 16.125 24.2083L16 24.3333L14.75 23.0833L13.5 24.3333L12.25 23.0833L11 24.3333L9.75 23.0833L8.5 24.3333Z" fill="#216BEB"/>
</g>
</svg>
