<svg width="32" height="32" viewBox="0 0 32 32" fill="none" xmlns="http://www.w3.org/2000/svg">
<circle cx="16" cy="16" r="15" fill="white" stroke="#E1EBFA" stroke-width="2"/>
<path d="M16 1C16 0.447715 16.4482 -0.00325582 16.9994 0.0312395C18.7587 0.141341 20.4901 0.541591 22.1229 1.21793C24.0641 2.022 25.828 3.20055 27.3137 4.68629C28.7994 6.17203 29.978 7.93586 30.7821 9.87707C31.5861 11.8183 32 13.8989 32 16C32 18.1012 31.5861 20.1817 30.7821 22.1229C29.978 24.0641 28.7994 25.828 27.3137 27.3137C25.828 28.7994 24.0641 29.978 22.1229 30.7821C20.4901 31.4584 18.7587 31.8587 16.9994 31.9688C16.4481 32.0033 16 31.5523 16 31C16 30.4477 16.4483 30.0037 16.9992 29.9643C18.4957 29.8572 19.9674 29.5101 21.3576 28.9343C23.0561 28.2307 24.5995 27.1995 25.8995 25.8995C27.1995 24.5995 28.2307 23.0561 28.9343 21.3576C29.6379 19.659 30 17.8385 30 16C30 14.1615 29.6379 12.341 28.9343 10.6424C28.2307 8.94388 27.1995 7.40053 25.8995 6.10051C24.5995 4.80049 23.0561 3.76925 21.3576 3.06569C19.9675 2.48988 18.4957 2.14277 16.9992 2.0357C16.4483 1.99628 16 1.55228 16 1Z" fill="#216BEB"/>
</svg>
