<svg width="32" height="32" viewBox="0 0 32 32" fill="none" xmlns="http://www.w3.org/2000/svg">
<circle cx="16" cy="16" r="15.5" fill="white" stroke="#C0C8D1" stroke-linecap="round"/>
<mask id="mask0_16237_528574" style="mask-type:alpha" maskUnits="userSpaceOnUse" x="6" y="6" width="20" height="20">
<rect x="6" y="6" width="20" height="20" fill="#D9D9D9"/>
</mask>
<g mask="url(#mask0_16237_528574)">
<path d="M10.167 23.5C9.47255 23.5 8.88227 23.2569 8.39616 22.7708C7.91005 22.2847 7.66699 21.6944 7.66699 21C7.66699 20.3056 7.91005 19.7153 8.39616 19.2292C8.88227 18.7431 9.47255 18.5 10.167 18.5H21.8337C22.5281 18.5 23.1184 18.7431 23.6045 19.2292C24.0906 19.7153 24.3337 20.3056 24.3337 21C24.3337 21.6944 24.0906 22.2847 23.6045 22.7708C23.1184 23.2569 22.5281 23.5 21.8337 23.5H10.167ZM10.167 21.8333H21.8337C22.0698 21.8333 22.2677 21.7535 22.4274 21.5938C22.5871 21.434 22.667 21.2361 22.667 21C22.667 20.7639 22.5871 20.566 22.4274 20.4062C22.2677 20.2465 22.0698 20.1667 21.8337 20.1667H10.167C9.93088 20.1667 9.73296 20.2465 9.57324 20.4062C9.41352 20.566 9.33366 20.7639 9.33366 21C9.33366 21.2361 9.41352 21.434 9.57324 21.5938C9.73296 21.7535 9.93088 21.8333 10.167 21.8333ZM14.3337 16.8333C14.0975 16.8333 13.8996 16.7535 13.7399 16.5938C13.5802 16.434 13.5003 16.2361 13.5003 16V9.33333C13.5003 9.09722 13.5802 8.89931 13.7399 8.73958C13.8996 8.57986 14.0975 8.5 14.3337 8.5H21.0003C21.2364 8.5 21.4344 8.57986 21.5941 8.73958C21.7538 8.89931 21.8337 9.09722 21.8337 9.33333V16C21.8337 16.2361 21.7538 16.434 21.5941 16.5938C21.4344 16.7535 21.2364 16.8333 21.0003 16.8333H14.3337ZM7.66699 15.125V13.5208H11.7712V15.125H7.66699ZM16.0003 12.6667H19.3337V11.0208H16.0003V12.6667ZM9.33366 12.6667H11.7712V11.0208H9.33366V12.6667Z" fill="#6C7784"/>
</g>
</svg>
