<svg width="32" height="32" viewBox="0 0 32 32" fill="none" xmlns="http://www.w3.org/2000/svg">
<circle cx="16" cy="16" r="15" fill="white" stroke="#E1EBFA" stroke-width="2"/>
<path d="M16 1C16 0.447715 16.4482 -0.00325582 16.9994 0.0312395C18.7587 0.141341 20.4901 0.541591 22.1229 1.21793C24.0641 2.022 25.828 3.20055 27.3137 4.68629C28.7994 6.17203 29.978 7.93586 30.7821 9.87707C31.5861 11.8183 32 13.8989 32 16C32 18.1012 31.5861 20.1817 30.7821 22.1229C29.978 24.0641 28.7994 25.828 27.3137 27.3137C25.828 28.7994 24.0641 29.978 22.1229 30.7821C20.4901 31.4584 18.7587 31.8587 16.9994 31.9688C16.4481 32.0033 16 31.5523 16 31C16 30.4477 16.4483 30.0037 16.9992 29.9643C18.4957 29.8572 19.9674 29.5101 21.3576 28.9343C23.0561 28.2307 24.5995 27.1995 25.8995 25.8995C27.1995 24.5995 28.2307 23.0561 28.9343 21.3576C29.6379 19.659 30 17.8385 30 16C30 14.1615 29.6379 12.341 28.9343 10.6424C28.2307 8.94388 27.1995 7.40053 25.8995 6.10051C24.5995 4.80049 23.0561 3.76925 21.3576 3.06569C19.9675 2.48988 18.4957 2.14277 16.9992 2.0357C16.4483 1.99628 16 1.55228 16 1Z" fill="#216BEB"/>
<mask id="mask0_16237_528575" style="mask-type:alpha" maskUnits="userSpaceOnUse" x="6" y="6" width="20" height="20">
<rect x="6" y="6" width="20" height="20" fill="#D9D9D9"/>
</mask>
<g mask="url(#mask0_16237_528575)">
<path d="M10.167 23.5C9.47255 23.5 8.88227 23.2569 8.39616 22.7708C7.91005 22.2847 7.66699 21.6944 7.66699 21C7.66699 20.3056 7.91005 19.7153 8.39616 19.2292C8.88227 18.7431 9.47255 18.5 10.167 18.5H21.8337C22.5281 18.5 23.1184 18.7431 23.6045 19.2292C24.0906 19.7153 24.3337 20.3056 24.3337 21C24.3337 21.6944 24.0906 22.2847 23.6045 22.7708C23.1184 23.2569 22.5281 23.5 21.8337 23.5H10.167ZM10.167 21.8333H21.8337C22.0698 21.8333 22.2677 21.7535 22.4274 21.5938C22.5871 21.434 22.667 21.2361 22.667 21C22.667 20.7639 22.5871 20.566 22.4274 20.4062C22.2677 20.2465 22.0698 20.1667 21.8337 20.1667H10.167C9.93088 20.1667 9.73296 20.2465 9.57324 20.4062C9.41352 20.566 9.33366 20.7639 9.33366 21C9.33366 21.2361 9.41352 21.434 9.57324 21.5938C9.73296 21.7535 9.93088 21.8333 10.167 21.8333ZM14.3337 16.8333C14.0975 16.8333 13.8996 16.7535 13.7399 16.5938C13.5802 16.434 13.5003 16.2361 13.5003 16V9.33333C13.5003 9.09722 13.5802 8.89931 13.7399 8.73958C13.8996 8.57986 14.0975 8.5 14.3337 8.5H21.0003C21.2364 8.5 21.4344 8.57986 21.5941 8.73958C21.7538 8.89931 21.8337 9.09722 21.8337 9.33333V16C21.8337 16.2361 21.7538 16.434 21.5941 16.5938C21.4344 16.7535 21.2364 16.8333 21.0003 16.8333H14.3337ZM7.66699 15.125V13.5208H11.7712V15.125H7.66699ZM16.0003 12.6667H19.3337V11.0208H16.0003V12.6667ZM9.33366 12.6667H11.7712V11.0208H9.33366V12.6667Z" fill="#216BEB"/>
</g>
</svg>
